# xmcd
#
# Track frame offsets:
#	150
#	18257
#	30132
#	52587
#	63894
#	83722
#	99146
#	109923
#	131025
#	145663
#	158774
#	170497
#
# Disc length: 2510 seconds
#
# Revision: 0
# Processed by: cddbd v1.5.2PL0 Copyright (c) Steve Scherf et al.
# Submitted via: EasyCDDAExtractor 16.0.6.1
#
DISCID=8109cc0c
DTITLE=Συλλογικός δίσκος - Τα τραγούδια της εξορίας-Μ. Θεοδωράκης 1
DYEAR=2014
DGENRE=Έντεχνη λαϊκή
TTITLE0=Φαραντούρη Μαρία - Άρνηση (Στο περιγιάλι το κρυφό)[Γ. Σεφέρης]
TTITLE1=Φαραντούρη Μαρία - Δόξα τω Θεώ [Ιάκ. Καμπανέλλης]
TTITLE2=Φαραντούρη Μαρία - Μάννα μου και Παναγιά [Τ. Λειβαδίτης]
TTITLE3=Φαραντούρη Μαρία - Απρίλης [Μ. Θεοδωράκης]
TTITLE4=Φαραντούρη Μαρία - Ροδόσταμο [Ν. Γκάτσος]
TTITLE5=Φαραντούρη Μαρία - Μαρίνα [Οδ. Ελύτης]
TTITLE6=Φαραντούρη Μαρία - Του μικρού βοριά [Οδ. Ελύτης]
TTITLE7=Φαραντούρη Μαρία - Σωτήρη Πέτρουλα [Μ. Θεοδωράκης]
TTITLE8=Καπερνάρος Γιώργος - Μαργαρίτα [Μ. Θεοδωράκης]
TTITLE9=Καπερνάρος Γιώργος - Βράχο βράχο [Δημ. Χριστοδούλου]
TTITLE10=Καπερνάρος Γιώργος - Βάρκα στο γιαλό [Μ. Θεοδωράκης]
TTITLE11=Φαραντούρη Μαρία - Βραδιάζει [Δημ. Χριστοδούλου]
EXTD=
EXTT0=
EXTT1=
EXTT2=
EXTT3=
EXTT4=
EXTT5=
EXTT6=
EXTT7=
EXTT8=
EXTT9=
EXTT10=
EXTT11=
PLAYORDER=
